{"title":"Megamind 2010 SCR XViD AC3 - IMAGiNE","uid":6085882,"size":1440150280,"categoryP":"video","categoryS":"movies","magnet":"?xt=urn:btih:ca0e731f33158de1b54e19a2cc6eb83bb6279050&amp;dn=Megamind+2010+SCR+XViD+AC3+-+IMAGiNE&amp;tr=udp%3A%2F%2Ftracker.openbittorrent.com%3A80&amp;tr=udp%3A%2F%2Fopen.demonii.com%3A1337&amp;tr=udp%3A%2F%2Ftracker.coppersurfer.tk%3A6969&amp;tr=udp%3A%2F%2Fexodus.desync.com%3A6969","seeders":0,"leechers":1,"uploader":"SAFCukO09","files":100,"time":1294325137,"description":"*********** **** **** *** ******** *********** **** *** **********\n\n*+* +*+*+* *+*+*+ *+* *+* *+* *+* *+* *+*+* *+* *+*\n\n+*+ +*+ +*+*+ +*+ +*+ +*+ +*+ +*+ *+*+*+ +*+ +*+\n\n+$+ +$+ +*+ +$+ +$++*++$++* *$* +$+ +$+ +*+ +$+ +$++*++$\n\n+$+ +$+ +$+ +$+ +$+ +$+ +$+$ +$+ +$+ +$+$+$ +$+\n\n$+$ $+$ $+$ $+$ $+$ $+$ $+$ $+$ $+$ $+$+$ $+$\n\n$$$$$$$$$$$ $$$ $$$ $$$ $$$ $$$$$$$$ $$$$$$$$$$$ $$$ $$$$ $$$$$$$$$$\n\n\n\n\n\n\n\n\n\nAnother Fine Release Brought to you from - IMAGiNE\n\n\n\n\n\n********************************************************************************************************************\n\nMegamind 2010 SCR XViD AC3 - IMAGiNE\n\n********************************************************************************************************************\n\n\n\nRipper ...........:IMAGiNE IMDB Rating.......:7.3/10\n\nVideo Codec.......:XVID Release Date......:05/11/10\n\nAudio Codec.......:AC3 Theatre Date......:06/01/11\n\nAudio Bitrate.....:192 Runtime...........:1h 35mn\n\nSubtitles.........:NIL Language..........:ENGLISH\n\nResolution........:720 x 400 IMDb URL.......... http://www.imdb.com/title/tt1001526/\n\n\n\nDETAILS:\n\n\n\nVideo\n\nID : 0\n\nFormat : MPEG-4 Visual\n\nFormat profile : Advanced Simple@L5\n\nFormat settings, BVOP : Yes\n\nFormat settings, QPel : No\n\nFormat settings, GMC : No warppoints\n\nFormat settings, Matrix : Default (H.263)\n\nMuxing mode : Packed bitstream\n\nCodec ID : XVID\n\nCodec ID/Hint : XviD\n\nDuration : 1h 35mn\n\nBit rate : 1 783 Kbps\n\nWidth : 720 pixels\n\nHeight : 400 pixels\n\nDisplay aspect ratio : 16:9\n\nFrame rate : 29.970 fps\n\nColor space : YUV\n\nChroma subsampling : 4:2:0\n\nBit depth : 8 bits\n\nScan type : Progressive\n\nCompression mode : Lossy\n\nBits/(Pixel*Frame) : 0.207\n\nStream size : 1.19 GiB (90%)\n\nWriting library : XviD 1.1.2 (UTC 2006-11-01)\n\n\n\nAudio\n\nID : 1\n\nFormat : AC-3\n\nFormat/Info : Audio Coding 3\n\nMode extension : CM (complete main)\n\nCodec ID : 2000\n\nDuration : 1h 35mn\n\nBit rate mode : Constant\n\nBit rate : 192 Kbps\n\nChannel(s) : 2 channels\n\nChannel positions : Front: L R\n\nSampling rate : 48.0 KHz\n\nBit depth : 16 bits\n\nCompression mode : Lossy\n\nStream size : 131 MiB (10%)\n\nAlignment : Aligned on interleaves\n\nInterleave, duration : 33 ms (1.00 video frame)\n\nInterleave, preload duration : 512 ms\n\n\n\n\n\nSOURCES:\n\n\n\nVIDEO:Megamind ......Thanks To&quot;A Friend&quot; for the vobs...\n\nAUDIO:Megamind ......Thanks To&quot;A Friend&quot; for the vobs...\n\n\n\nNOTES:\n\n\n\nIMAGiNE bringing you another release..........Megamind 2010\n\n\n\nWell heres a nice new year treat for ya all\n\nWe were sent the vobs of this from &quot;A Good Friend&quot; Thanks matey\n\nWe've cropped and resized and clean the video up the best we could,\n\nbut got to say this is a nice screener\n\n\n\nEnjoy folks","torrent":{"xt":"urn:btih:ca0e731f33158de1b54e19a2cc6eb83bb6279050","amp;dn":"Megamind+2010+SCR+XViD+AC3+-+IMAGiNE","amp;tr":["udp%3A%2F%2Ftracker.openbittorrent.com%3A80","udp%3A%2F%2Fopen.demonii.com%3A1337","udp%3A%2F%2Ftracker.coppersurfer.tk%3A6969","udp%3A%2F%2Fexodus.desync.com%3A6969"],"infoHash":"ca0e731f33158de1b54e19a2cc6eb83bb6279050","infoHashBuffer":{"type":"Buffer","data":[202,14,115,31,51,21,141,225,181,78,25,162,204,110,184,59,182,39,144,80]},"announce":[],"urlList":[]}}